<?xml version="1.0" encoding="UTF-8" standalone="no"?>
<!DOCTYPE svg PUBLIC "-//W3C//DTD SVG 1.1//EN"
 "http://www.w3.org/Graphics/SVG/1.1/DTD/svg11.dtd">
<!-- Generated by graphviz version 6.0.2 (20221011.1828)
 -->
<!-- Title: differentiator Pages: 1 -->
<svg width="512pt" height="152pt"
 viewBox="0.00 0.00 512.00 152.00" xmlns="http://www.w3.org/2000/svg" xmlns:xlink="http://www.w3.org/1999/xlink">
<g id="graph0" class="graph" transform="scale(1 1) rotate(0) translate(4 148)">
<title>differentiator</title>
<polygon fill="#ffffff" stroke="none" points="-4,4 -4,-148 508,-148 508,4 -4,4"/>
<!-- Q00B715C8 -->
<g id="node1" class="node">
<title>Q00B715C8</title>
<polygon fill="#b2ec5d" stroke="black" points="0,-64.5 0,-110.5 144,-110.5 144,-64.5 0,-64.5"/>
<text text-anchor="middle" x="12" y="-83.8" font-family="Times New Roman,serif" font-size="14.00">&#45;</text>
<polyline fill="none" stroke="black" points="24,-64.5 24,-110.5"/>
<text text-anchor="middle" x="44" y="-95.3" font-family="Times New Roman,serif" font-size="14.00">left</text>
<polyline fill="none" stroke="black" points="64,-87.5 64,-110.5"/>
<text text-anchor="middle" x="104" y="-95.3" font-family="Times New Roman,serif" font-size="14.00">00B71548</text>
<polyline fill="none" stroke="black" points="24,-87.5 144,-87.5"/>
<text text-anchor="middle" x="45" y="-72.3" font-family="Times New Roman,serif" font-size="14.00">right</text>
<polyline fill="none" stroke="black" points="66,-64.5 66,-87.5"/>
<text text-anchor="middle" x="105" y="-72.3" font-family="Times New Roman,serif" font-size="14.00">00B715A8</text>
</g>
<!-- Q00B71548 -->
<g id="node2" class="node">
<title>Q00B71548</title>
<polygon fill="#ff7b61" stroke="black" points="180,-97.5 180,-143.5 324,-143.5 324,-97.5 180,-97.5"/>
<text text-anchor="middle" x="195.5" y="-116.8" font-family="Times New Roman,serif" font-size="14.00">10</text>
<polyline fill="none" stroke="black" points="211,-97.5 211,-143.5"/>
<text text-anchor="middle" x="230" y="-128.3" font-family="Times New Roman,serif" font-size="14.00">left</text>
<polyline fill="none" stroke="black" points="249,-120.5 249,-143.5"/>
<text text-anchor="middle" x="286.5" y="-128.3" font-family="Times New Roman,serif" font-size="14.00">00000000</text>
<polyline fill="none" stroke="black" points="211,-120.5 324,-120.5"/>
<text text-anchor="middle" x="231.5" y="-105.3" font-family="Times New Roman,serif" font-size="14.00">right</text>
<polyline fill="none" stroke="black" points="252,-97.5 252,-120.5"/>
<text text-anchor="middle" x="288" y="-105.3" font-family="Times New Roman,serif" font-size="14.00">00000000</text>
</g>
<!-- Q00B715C8&#45;&gt;Q00B71548 -->
<g id="edge3" class="edge">
<title>Q00B715C8&#45;&gt;Q00B71548</title>
<path fill="none" stroke="black" d="M144.12,-100.68C152.61,-102.26 161.33,-103.88 169.94,-105.47"/>
<polygon fill="black" stroke="black" points="169.52,-108.95 180,-107.34 170.8,-102.07 169.52,-108.95"/>
</g>
<!-- Q00B715A8 -->
<g id="node3" class="node">
<title>Q00B715A8</title>
<polygon fill="#b2ec5d" stroke="black" points="180,-32.5 180,-78.5 324,-78.5 324,-32.5 180,-32.5"/>
<text text-anchor="middle" x="193" y="-51.8" font-family="Times New Roman,serif" font-size="14.00">^</text>
<polyline fill="none" stroke="black" points="206,-32.5 206,-78.5"/>
<text text-anchor="middle" x="225.5" y="-63.3" font-family="Times New Roman,serif" font-size="14.00">left</text>
<polyline fill="none" stroke="black" points="245,-55.5 245,-78.5"/>
<text text-anchor="middle" x="284.5" y="-63.3" font-family="Times New Roman,serif" font-size="14.00">00B71568</text>
<polyline fill="none" stroke="black" points="206,-55.5 324,-55.5"/>
<text text-anchor="middle" x="227.5" y="-40.3" font-family="Times New Roman,serif" font-size="14.00">right</text>
<polyline fill="none" stroke="black" points="249,-32.5 249,-55.5"/>
<text text-anchor="middle" x="286.5" y="-40.3" font-family="Times New Roman,serif" font-size="14.00">00B71588</text>
</g>
<!-- Q00B715C8&#45;&gt;Q00B715A8 -->
<g id="edge4" class="edge">
<title>Q00B715C8&#45;&gt;Q00B715A8</title>
<path fill="none" stroke="black" d="M144.12,-74.71C152.61,-73.19 161.33,-71.62 169.94,-70.07"/>
<polygon fill="black" stroke="black" points="170.77,-73.48 180,-68.26 169.53,-66.59 170.77,-73.48"/>
</g>
<!-- Q00B71568 -->
<g id="node4" class="node">
<title>Q00B71568</title>
<polygon fill="#ff7b61" stroke="black" points="360,-65.5 360,-111.5 504,-111.5 504,-65.5 360,-65.5"/>
<text text-anchor="middle" x="373.5" y="-84.8" font-family="Times New Roman,serif" font-size="14.00">x</text>
<polyline fill="none" stroke="black" points="387,-65.5 387,-111.5"/>
<text text-anchor="middle" x="407" y="-96.3" font-family="Times New Roman,serif" font-size="14.00">left</text>
<polyline fill="none" stroke="black" points="427,-88.5 427,-111.5"/>
<text text-anchor="middle" x="465.5" y="-96.3" font-family="Times New Roman,serif" font-size="14.00">00000000</text>
<polyline fill="none" stroke="black" points="387,-88.5 504,-88.5"/>
<text text-anchor="middle" x="408.5" y="-73.3" font-family="Times New Roman,serif" font-size="14.00">right</text>
<polyline fill="none" stroke="black" points="430,-65.5 430,-88.5"/>
<text text-anchor="middle" x="467" y="-73.3" font-family="Times New Roman,serif" font-size="14.00">00000000</text>
</g>
<!-- Q00B715A8&#45;&gt;Q00B71568 -->
<g id="edge1" class="edge">
<title>Q00B715A8&#45;&gt;Q00B71568</title>
<path fill="none" stroke="black" d="M324.12,-68.68C332.61,-70.26 341.33,-71.88 349.94,-73.47"/>
<polygon fill="black" stroke="black" points="349.52,-76.95 360,-75.34 350.8,-70.07 349.52,-76.95"/>
</g>
<!-- Q00B71588 -->
<g id="node5" class="node">
<title>Q00B71588</title>
<polygon fill="#ff7b61" stroke="black" points="360,-0.5 360,-46.5 504,-46.5 504,-0.5 360,-0.5"/>
<text text-anchor="middle" x="373.5" y="-19.8" font-family="Times New Roman,serif" font-size="14.00">2</text>
<polyline fill="none" stroke="black" points="387,-0.5 387,-46.5"/>
<text text-anchor="middle" x="407" y="-31.3" font-family="Times New Roman,serif" font-size="14.00">left</text>
<polyline fill="none" stroke="black" points="427,-23.5 427,-46.5"/>
<text text-anchor="middle" x="465.5" y="-31.3" font-family="Times New Roman,serif" font-size="14.00">00000000</text>
<polyline fill="none" stroke="black" points="387,-23.5 504,-23.5"/>
<text text-anchor="middle" x="408.5" y="-8.3" font-family="Times New Roman,serif" font-size="14.00">right</text>
<polyline fill="none" stroke="black" points="430,-0.5 430,-23.5"/>
<text text-anchor="middle" x="467" y="-8.3" font-family="Times New Roman,serif" font-size="14.00">00000000</text>
</g>
<!-- Q00B715A8&#45;&gt;Q00B71588 -->
<g id="edge2" class="edge">
<title>Q00B715A8&#45;&gt;Q00B71588</title>
<path fill="none" stroke="black" d="M324.12,-42.71C332.61,-41.19 341.33,-39.62 349.94,-38.07"/>
<polygon fill="black" stroke="black" points="350.77,-41.48 360,-36.26 349.53,-34.59 350.77,-41.48"/>
</g>
</g>
</svg>
